<svg width="12.000000" height="18.000000" viewBox="0 0 12 18" fill="none" xmlns="http://www.w3.org/2000/svg" xmlns:xlink="http://www.w3.org/1999/xlink">
	<desc>
			Created with Pixso.
	</desc>
	<defs/>
	<path id="Сравение" d="M7 17L7 1C7 0.439941 6.56 0 6 0C5.44 0 5 0.439941 5 1L5 17C5 17.5601 5.44 18 6 18C6.56 18 7 17.5601 7 17ZM12 6L12 17C12 17.5601 11.56 18 11 18C10.44 18 10 17.5601 10 17L10 6C10 5.43994 10.44 5 11 5C11.56 5 12 5.43994 12 6ZM2 9L2 16C2 16.5601 1.56 17 1 17C0.440002 17 0 16.5601 0 16L0 9C0 8.43994 0.440002 8 1 8C1.56 8 2 8.43994 2 9Z" clip-rule="evenodd" fill="#C9C9CF" fill-opacity="1.000000" fill-rule="evenodd"/>
</svg>
