<svg width="106.000000" height="64.000000" viewBox="0 0 106 64" fill="none" xmlns="http://www.w3.org/2000/svg" xmlns:xlink="http://www.w3.org/1999/xlink">
	<desc>
			Created with Pixso.
	</desc>
	<defs>
		<clipPath id="clip1_158">
			<rect id="Frame" rx="0.000000" width="105.000000" height="63.000000" transform="translate(0.500000 0.500000)" fill="white" fill-opacity="0"/>
		</clipPath>
	</defs>
	<rect id="Frame" rx="0.000000" width="105.000000" height="63.000000" transform="translate(0.500000 0.500000)" fill="#FFFFFF" fill-opacity="0"/>
	<g clip-path="url(#clip1_158)">
		<path id="Vector" d="M7.75 57.21L3.77 49.84L0 49.84L0 63.8L3.57 63.8L3.57 56.02L6.36 61L9.14 61L11.93 56.02L11.93 63.8L15.51 63.8L15.51 49.84L11.73 49.84L7.75 57.21ZM27.44 49.64L22.47 49.64C21.08 49.64 20.07 49.95 19.44 50.58C18.81 51.22 18.49 52.23 18.49 53.63L18.49 60.01C18.49 61.4 18.81 62.42 19.44 63.05C20.07 63.68 21.08 64 22.47 64L27.44 64C28.83 64 29.84 63.68 30.47 63.05C31.1 62.42 31.42 61.4 31.42 60.01L31.42 53.63C31.42 52.23 31.1 51.22 30.47 50.58C29.84 49.95 28.83 49.64 27.44 49.64ZM27.84 60.01C27.84 60.8 27.44 61.2 26.64 61.2L23.26 61.2C22.47 61.2 22.07 60.8 22.07 60.01L22.07 53.63C22.07 52.83 22.47 52.43 23.26 52.43L26.64 52.43C27.44 52.43 27.84 52.83 27.84 53.63L27.84 60.01ZM42.95 55.32L37.98 55.32L37.98 49.84L34.4 49.84L34.4 63.8L37.98 63.8L37.98 58.11L42.95 58.11L42.95 63.8L46.53 63.8L46.53 49.84L42.95 49.84L42.95 55.32ZM49.91 63.8L60.95 63.8L60.95 61L53.49 61L53.49 58.11L59.36 58.11L59.36 55.32L53.49 55.32L53.49 52.63L60.95 52.63L60.95 49.84L49.91 49.84L49.91 63.8ZM75.12 57.49C74.9 57.2 74.65 56.97 74.36 56.8C74.06 56.62 73.77 56.5 73.48 56.42C73.98 56.22 74.41 55.87 74.75 55.37C75.1 54.87 75.27 54.22 75.27 53.42C75.27 52.22 74.96 51.31 74.36 50.72C73.75 50.13 72.79 49.83 71.49 49.83L63.54 49.83L63.54 63.79L72.09 63.79C73.39 63.79 74.34 63.49 74.95 62.88C75.56 62.27 75.87 61.31 75.87 60.01C75.87 59.46 75.8 58.98 75.66 58.56C75.52 58.14 75.34 57.79 75.12 57.49ZM67.12 52.63L70.5 52.63C71.29 52.63 71.69 53.03 71.69 53.82L71.69 54.22C71.69 55.02 71.29 55.42 70.5 55.42L67.12 55.42L67.12 52.63ZM72.29 59.81C72.29 60.6 71.89 61 71.09 61L67.12 61L67.12 58.21L71.09 58.21C71.89 58.21 72.29 58.61 72.29 59.41L72.29 59.81ZM82.53 49.84L77.26 63.8L81.14 63.8L82.03 61.3L87 61.3L87.9 63.8L91.78 63.8L86.51 49.84L82.53 49.84ZM82.93 58.71L84.52 54.02L86.11 58.71L82.93 58.71ZM102.12 56.72L104.01 53.13C104.09 52.98 104.21 52.84 104.36 52.72C104.52 52.59 104.7 52.53 104.9 52.53L105.7 52.53L105.7 49.84C105.52 49.81 105.34 49.78 105.14 49.74C104.97 49.71 104.78 49.69 104.56 49.67C104.35 49.65 104.13 49.64 103.91 49.64C103.2 49.64 102.64 49.81 102.21 50.17C101.78 50.52 101.41 50.97 101.12 51.53L99.13 55.32L97.34 55.32L97.34 49.84L93.76 49.84L93.76 63.8L97.34 63.8L97.34 58.11L99.13 58.11L102.22 63.8L106 63.8L102.12 56.72Z" fill="#BF2738" fill-opacity="1.000000" fill-rule="nonzero"/>
		<path id="Vector" d="M79.8 30.99L79.8 6.8C79.8 6.8 79.97 3.66 78.56 2.24C77.15 0.82 74.04 1.03 74.04 1.03L32.56 1.03C32.56 1.03 29.04 0.94 27.51 2.55C26.03 4.11 26.06 7.34 26.06 7.34L26.06 30.59C26.06 30.59 25.89 33.9 27.51 35.45C29.18 37.05 32.63 36.91 32.63 36.91L73.77 36.91C73.77 36.91 77 37.14 78.53 35.64C80.02 34.18 79.8 30.99 79.8 30.99Z" fill="#BF2738" fill-opacity="1.000000" fill-rule="nonzero"/>
		<path id="Vector" d="M76.61 3.93C75.89 3.25 74.63 3.01 74.63 3.01L65.49 3.01C65.49 3.01 51.08 27.58 49.66 29.27C45.17 34.62 39.16 34.77 39.16 34.77L74.93 34.77C74.93 34.77 76.12 34.53 76.76 33.85C77.41 33.16 77.52 32.02 77.52 32.02L77.52 5.76C77.52 5.76 77.34 4.62 76.61 3.93Z" fill="#1A1A1A" fill-opacity="1.000000" fill-rule="nonzero"/>
		<path id="Vector" d="M60.95 0.01C58.04 -0.18 54.69 1.64 54.69 1.64L37.05 17.92C37.05 17.92 47.95 14.91 49.35 22.81C51.28 33.71 37.98 34.84 37.98 34.84C37.98 34.84 43.88 35.43 48.89 30.72C53.45 26.43 65.83 3.03 65.83 3.03C65.83 3.03 63.59 0.17 60.95 0.01Z" fill="#FFFFFF" fill-opacity="1.000000" fill-rule="nonzero"/>
	</g>
</svg>
