<svg width="18.711212" height="19.296875" viewBox="0 0 18.7112 19.2969" fill="none" xmlns="http://www.w3.org/2000/svg" xmlns:xlink="http://www.w3.org/1999/xlink">
	<desc>
			Created with Pixso.
	</desc>
	<defs/>
	<path id="Поиск" d="M1.71121 8.5C1.71121 3.80566 5.51678 0 10.2112 0C14.9056 0 18.7112 3.80566 18.7112 8.5C18.7112 13.1943 14.9056 17 10.2112 17C8.37454 17 6.67395 16.4175 5.28409 15.427L1.71121 19C1.31522 19.396 0.692963 19.396 0.296997 19C-0.098999 18.604 -0.098999 17.9817 0.296997 17.5857L3.80078 14.082C2.49936 12.5886 1.71121 10.6365 1.71121 8.5ZM3.71121 8.5C3.71121 4.91016 6.62134 2 10.2112 2C13.8011 2 16.7112 4.91016 16.7112 8.5C16.7112 12.0898 13.8011 15 10.2112 15C6.62134 15 3.71121 12.0898 3.71121 8.5Z" clip-rule="evenodd" fill="#C9C9CF" fill-opacity="1.000000" fill-rule="evenodd"/>
</svg>
